<mxfile host="www.draw.io" modified="2020-04-23T20:24:53.476Z" agent="5.0 (Macintosh; Intel Mac OS X 10_15_1) AppleWebKit/537.36 (KHTML, like Gecko) Chrome/80.0.3987.163 Safari/537.36" etag="2MrTWUI77ridjWEdh3xI" version="13.0.1" type="github" pages="5">
  <diagram id="xnCYhN0wcjJ44rRVsSE7" name="01 - listen">
    <mxGraphModel dx="858" dy="422" grid="1" gridSize="10" guides="1" tooltips="1" connect="1" arrows="1" fold="1" page="1" pageScale="1" pageWidth="1920" pageHeight="1200" math="0" shadow="0">
      <root>
        <mxCell id="0" />
        <mxCell id="1" parent="0" />
        <mxCell id="ORSE5F3cjSJSo7zAx9cc-1" value="Tickets Service" style="rounded=0;whiteSpace=wrap;html=1;fontSize=19;fillColor=#f5f5f5;strokeColor=#666666;fontColor=#333333;fontStyle=1" vertex="1" parent="1">
          <mxGeometry x="700" y="180" width="180" height="25" as="geometry" />
        </mxCell>
        <mxCell id="ORSE5F3cjSJSo7zAx9cc-2" style="edgeStyle=orthogonalEdgeStyle;rounded=0;orthogonalLoop=1;jettySize=auto;html=1;exitX=0.5;exitY=1;exitDx=0;exitDy=0;fontSize=19;" edge="1" parent="1" source="ORSE5F3cjSJSo7zAx9cc-3" target="ORSE5F3cjSJSo7zAx9cc-10">
          <mxGeometry relative="1" as="geometry" />
        </mxCell>
        <mxCell id="ORSE5F3cjSJSo7zAx9cc-3" value="" style="rounded=0;whiteSpace=wrap;html=1;fontSize=22;fillColor=#f5f5f5;strokeColor=#666666;fontColor=#333333;fontStyle=1" vertex="1" parent="1">
          <mxGeometry x="700" y="205" width="180" height="130" as="geometry" />
        </mxCell>
        <mxCell id="ORSE5F3cjSJSo7zAx9cc-4" value="Orders Service" style="rounded=0;whiteSpace=wrap;html=1;fontSize=19;fillColor=#f5f5f5;strokeColor=#666666;fontColor=#333333;fontStyle=1" vertex="1" parent="1">
          <mxGeometry x="910" y="180" width="180" height="25" as="geometry" />
        </mxCell>
        <mxCell id="ORSE5F3cjSJSo7zAx9cc-5" value="" style="rounded=0;whiteSpace=wrap;html=1;fontSize=22;fillColor=#f5f5f5;strokeColor=#666666;fontColor=#333333;fontStyle=1" vertex="1" parent="1">
          <mxGeometry x="910" y="205" width="180" height="130" as="geometry" />
        </mxCell>
        <mxCell id="ORSE5F3cjSJSo7zAx9cc-6" value="tickets" style="rounded=0;whiteSpace=wrap;html=1;fontSize=19;fillColor=#d5e8d4;strokeColor=#82b366;" vertex="1" parent="1">
          <mxGeometry x="730" y="220" width="120" height="40" as="geometry" />
        </mxCell>
        <mxCell id="ORSE5F3cjSJSo7zAx9cc-7" value="orders" style="rounded=0;whiteSpace=wrap;html=1;fontSize=19;fillColor=#d5e8d4;strokeColor=#82b366;" vertex="1" parent="1">
          <mxGeometry x="940" y="220" width="120" height="40" as="geometry" />
        </mxCell>
        <mxCell id="ORSE5F3cjSJSo7zAx9cc-8" value="tickets" style="rounded=0;whiteSpace=wrap;html=1;fontSize=19;fillColor=#e1d5e7;strokeColor=#9673a6;" vertex="1" parent="1">
          <mxGeometry x="940" y="270" width="120" height="40" as="geometry" />
        </mxCell>
        <mxCell id="ORSE5F3cjSJSo7zAx9cc-14" style="edgeStyle=orthogonalEdgeStyle;rounded=0;orthogonalLoop=1;jettySize=auto;html=1;exitX=1;exitY=0.5;exitDx=0;exitDy=0;entryX=0.5;entryY=1;entryDx=0;entryDy=0;" edge="1" parent="1" source="ORSE5F3cjSJSo7zAx9cc-10" target="ORSE5F3cjSJSo7zAx9cc-13">
          <mxGeometry relative="1" as="geometry" />
        </mxCell>
        <mxCell id="ORSE5F3cjSJSo7zAx9cc-10" value="ticket:created" style="rounded=0;whiteSpace=wrap;html=1;fontSize=17;fillColor=#f8cecc;strokeColor=#b85450;" vertex="1" parent="1">
          <mxGeometry x="715" y="410" width="150" height="40" as="geometry" />
        </mxCell>
        <mxCell id="ORSE5F3cjSJSo7zAx9cc-11" value="Orders needs to know the valid tickets that can be purchased" style="rounded=0;whiteSpace=wrap;html=1;fontSize=14;" vertex="1" parent="1">
          <mxGeometry x="910" y="430" width="280" height="40" as="geometry" />
        </mxCell>
        <mxCell id="ORSE5F3cjSJSo7zAx9cc-12" value="Orders needs to know the price of each ticket" style="rounded=0;whiteSpace=wrap;html=1;fontSize=14;" vertex="1" parent="1">
          <mxGeometry x="910" y="470" width="280" height="40" as="geometry" />
        </mxCell>
        <mxCell id="ORSE5F3cjSJSo7zAx9cc-13" value="TicketCreatedListener" style="rounded=0;whiteSpace=wrap;html=1;fontSize=15;fillColor=#dae8fc;strokeColor=#6c8ebf;fontStyle=1" vertex="1" parent="1">
          <mxGeometry x="915" y="335" width="170" height="40" as="geometry" />
        </mxCell>
      </root>
    </mxGraphModel>
  </diagram>
  <diagram id="NbMOHXKW-aE1ceOAoyQM" name="02 - qgn">
    <mxGraphModel dx="858" dy="422" grid="1" gridSize="10" guides="1" tooltips="1" connect="1" arrows="1" fold="1" page="1" pageScale="1" pageWidth="1920" pageHeight="1200" math="0" shadow="0">
      <root>
        <mxCell id="OwF_ds5M16nl4MQUx6a--0" />
        <mxCell id="OwF_ds5M16nl4MQUx6a--1" parent="OwF_ds5M16nl4MQUx6a--0" />
        <mxCell id="ZhLlfhxZzAETnSpoU_aa-0" value="Orders Service A" style="rounded=0;whiteSpace=wrap;html=1;fontSize=19;fillColor=#f5f5f5;strokeColor=#666666;fontColor=#333333;fontStyle=1" vertex="1" parent="OwF_ds5M16nl4MQUx6a--1">
          <mxGeometry x="450" y="340" width="180" height="25" as="geometry" />
        </mxCell>
        <mxCell id="ZhLlfhxZzAETnSpoU_aa-1" value="" style="rounded=0;whiteSpace=wrap;html=1;fontSize=22;fillColor=#f5f5f5;strokeColor=#666666;fontColor=#333333;fontStyle=1" vertex="1" parent="OwF_ds5M16nl4MQUx6a--1">
          <mxGeometry x="450" y="365" width="180" height="65" as="geometry" />
        </mxCell>
        <mxCell id="ZhLlfhxZzAETnSpoU_aa-4" value="Orders Service B" style="rounded=0;whiteSpace=wrap;html=1;fontSize=19;fillColor=#f5f5f5;strokeColor=#666666;fontColor=#333333;fontStyle=1" vertex="1" parent="OwF_ds5M16nl4MQUx6a--1">
          <mxGeometry x="450" y="440" width="180" height="25" as="geometry" />
        </mxCell>
        <mxCell id="ZhLlfhxZzAETnSpoU_aa-5" value="" style="rounded=0;whiteSpace=wrap;html=1;fontSize=22;fillColor=#f5f5f5;strokeColor=#666666;fontColor=#333333;fontStyle=1" vertex="1" parent="OwF_ds5M16nl4MQUx6a--1">
          <mxGeometry x="450" y="465" width="180" height="65" as="geometry" />
        </mxCell>
        <mxCell id="ZhLlfhxZzAETnSpoU_aa-6" value="Tickets Service" style="rounded=0;whiteSpace=wrap;html=1;fontSize=19;fillColor=#f5f5f5;strokeColor=#666666;fontColor=#333333;fontStyle=1" vertex="1" parent="OwF_ds5M16nl4MQUx6a--1">
          <mxGeometry x="450" y="190" width="180" height="25" as="geometry" />
        </mxCell>
        <mxCell id="ZhLlfhxZzAETnSpoU_aa-7" value="" style="rounded=0;whiteSpace=wrap;html=1;fontSize=22;fillColor=#f5f5f5;strokeColor=#666666;fontColor=#333333;fontStyle=1" vertex="1" parent="OwF_ds5M16nl4MQUx6a--1">
          <mxGeometry x="450" y="215" width="180" height="65" as="geometry" />
        </mxCell>
        <mxCell id="ZhLlfhxZzAETnSpoU_aa-10" value="NATS" style="rounded=0;whiteSpace=wrap;html=1;fontSize=19;fillColor=#f5f5f5;strokeColor=#666666;fontColor=#333333;fontStyle=1" vertex="1" parent="OwF_ds5M16nl4MQUx6a--1">
          <mxGeometry x="840" y="190" width="180" height="25" as="geometry" />
        </mxCell>
        <mxCell id="ZhLlfhxZzAETnSpoU_aa-11" value="" style="rounded=0;whiteSpace=wrap;html=1;fontSize=22;fillColor=#f5f5f5;strokeColor=#666666;fontColor=#333333;fontStyle=1" vertex="1" parent="OwF_ds5M16nl4MQUx6a--1">
          <mxGeometry x="840" y="215" width="180" height="315" as="geometry" />
        </mxCell>
        <mxCell id="ZhLlfhxZzAETnSpoU_aa-12" value="&lt;b style=&quot;font-size: 14px;&quot;&gt;Event&lt;/b&gt;&lt;br style=&quot;font-size: 14px;&quot;&gt;ticket:created" style="rounded=0;whiteSpace=wrap;html=1;fontSize=14;fillColor=#f8cecc;strokeColor=#b85450;" vertex="1" parent="OwF_ds5M16nl4MQUx6a--1">
          <mxGeometry x="630" y="475" width="110" height="40" as="geometry" />
        </mxCell>
        <mxCell id="w-v8SBg2veydvhHXY_gR-0" value="Channel &#39;ticket:created&#39;" style="rounded=0;whiteSpace=wrap;html=1;fontSize=14;fillColor=#dae8fc;strokeColor=#6c8ebf;" vertex="1" parent="OwF_ds5M16nl4MQUx6a--1">
          <mxGeometry x="850" y="237.5" width="160" height="32.5" as="geometry" />
        </mxCell>
        <mxCell id="w-v8SBg2veydvhHXY_gR-1" value="" style="rounded=0;whiteSpace=wrap;html=1;fontSize=14;fillColor=#dae8fc;strokeColor=#6c8ebf;" vertex="1" parent="OwF_ds5M16nl4MQUx6a--1">
          <mxGeometry x="850" y="270" width="160" height="250" as="geometry" />
        </mxCell>
        <mxCell id="w-v8SBg2veydvhHXY_gR-2" value="Subscription for Orders A" style="rounded=0;whiteSpace=wrap;html=1;fontSize=13;fillColor=#f5f5f5;strokeColor=#666666;fontColor=#333333;fontStyle=0" vertex="1" parent="OwF_ds5M16nl4MQUx6a--1">
          <mxGeometry x="882.5" y="365" width="95" height="55" as="geometry" />
        </mxCell>
        <mxCell id="w-v8SBg2veydvhHXY_gR-3" value="Subscription for Orders B" style="rounded=0;whiteSpace=wrap;html=1;fontSize=13;fillColor=#f5f5f5;strokeColor=#666666;fontColor=#333333;fontStyle=0" vertex="1" parent="OwF_ds5M16nl4MQUx6a--1">
          <mxGeometry x="882.5" y="420" width="95" height="55" as="geometry" />
        </mxCell>
        <mxCell id="LWep_g7rADwL56hSZr_t-0" value="&lt;b style=&quot;font-size: 14px;&quot;&gt;Event&lt;/b&gt;&lt;br style=&quot;font-size: 14px;&quot;&gt;ticket:created" style="rounded=0;whiteSpace=wrap;html=1;fontSize=14;fillColor=#f8cecc;strokeColor=#b85450;" vertex="1" parent="OwF_ds5M16nl4MQUx6a--1">
          <mxGeometry x="650" y="380" width="110" height="40" as="geometry" />
        </mxCell>
      </root>
    </mxGraphModel>
  </diagram>
  <diagram name="03 - qgn" id="3inSCm0C_Fc5QLq7gCSl">
    <mxGraphModel dx="733" dy="360" grid="1" gridSize="10" guides="1" tooltips="1" connect="1" arrows="1" fold="1" page="1" pageScale="1" pageWidth="1920" pageHeight="1200" math="0" shadow="0">
      <root>
        <mxCell id="f13K0g8XB1xMri5c8Z9y-0" />
        <mxCell id="f13K0g8XB1xMri5c8Z9y-1" parent="f13K0g8XB1xMri5c8Z9y-0" />
        <mxCell id="f13K0g8XB1xMri5c8Z9y-2" value="Orders Service A" style="rounded=0;whiteSpace=wrap;html=1;fontSize=19;fillColor=#f5f5f5;strokeColor=#666666;fontColor=#333333;fontStyle=1" vertex="1" parent="f13K0g8XB1xMri5c8Z9y-1">
          <mxGeometry x="450" y="340" width="180" height="25" as="geometry" />
        </mxCell>
        <mxCell id="f13K0g8XB1xMri5c8Z9y-3" value="" style="rounded=0;whiteSpace=wrap;html=1;fontSize=22;fillColor=#f5f5f5;strokeColor=#666666;fontColor=#333333;fontStyle=1" vertex="1" parent="f13K0g8XB1xMri5c8Z9y-1">
          <mxGeometry x="450" y="365" width="180" height="65" as="geometry" />
        </mxCell>
        <mxCell id="f13K0g8XB1xMri5c8Z9y-4" value="Orders Service B" style="rounded=0;whiteSpace=wrap;html=1;fontSize=19;fillColor=#f5f5f5;strokeColor=#666666;fontColor=#333333;fontStyle=1" vertex="1" parent="f13K0g8XB1xMri5c8Z9y-1">
          <mxGeometry x="450" y="440" width="180" height="25" as="geometry" />
        </mxCell>
        <mxCell id="f13K0g8XB1xMri5c8Z9y-5" value="" style="rounded=0;whiteSpace=wrap;html=1;fontSize=22;fillColor=#f5f5f5;strokeColor=#666666;fontColor=#333333;fontStyle=1" vertex="1" parent="f13K0g8XB1xMri5c8Z9y-1">
          <mxGeometry x="450" y="465" width="180" height="65" as="geometry" />
        </mxCell>
        <mxCell id="f13K0g8XB1xMri5c8Z9y-6" value="Tickets Service" style="rounded=0;whiteSpace=wrap;html=1;fontSize=19;fillColor=#f5f5f5;strokeColor=#666666;fontColor=#333333;fontStyle=1" vertex="1" parent="f13K0g8XB1xMri5c8Z9y-1">
          <mxGeometry x="450" y="190" width="180" height="25" as="geometry" />
        </mxCell>
        <mxCell id="f13K0g8XB1xMri5c8Z9y-7" value="" style="rounded=0;whiteSpace=wrap;html=1;fontSize=22;fillColor=#f5f5f5;strokeColor=#666666;fontColor=#333333;fontStyle=1" vertex="1" parent="f13K0g8XB1xMri5c8Z9y-1">
          <mxGeometry x="450" y="215" width="180" height="65" as="geometry" />
        </mxCell>
        <mxCell id="f13K0g8XB1xMri5c8Z9y-8" value="NATS" style="rounded=0;whiteSpace=wrap;html=1;fontSize=19;fillColor=#f5f5f5;strokeColor=#666666;fontColor=#333333;fontStyle=1" vertex="1" parent="f13K0g8XB1xMri5c8Z9y-1">
          <mxGeometry x="840" y="190" width="180" height="25" as="geometry" />
        </mxCell>
        <mxCell id="f13K0g8XB1xMri5c8Z9y-9" value="" style="rounded=0;whiteSpace=wrap;html=1;fontSize=22;fillColor=#f5f5f5;strokeColor=#666666;fontColor=#333333;fontStyle=1" vertex="1" parent="f13K0g8XB1xMri5c8Z9y-1">
          <mxGeometry x="840" y="215" width="180" height="315" as="geometry" />
        </mxCell>
        <mxCell id="f13K0g8XB1xMri5c8Z9y-11" value="Channel &#39;ticket:created&#39;" style="rounded=0;whiteSpace=wrap;html=1;fontSize=14;fillColor=#dae8fc;strokeColor=#6c8ebf;" vertex="1" parent="f13K0g8XB1xMri5c8Z9y-1">
          <mxGeometry x="850" y="237.5" width="160" height="32.5" as="geometry" />
        </mxCell>
        <mxCell id="f13K0g8XB1xMri5c8Z9y-12" value="" style="rounded=0;whiteSpace=wrap;html=1;fontSize=14;fillColor=#dae8fc;strokeColor=#6c8ebf;" vertex="1" parent="f13K0g8XB1xMri5c8Z9y-1">
          <mxGeometry x="850" y="270" width="160" height="250" as="geometry" />
        </mxCell>
        <mxCell id="f13K0g8XB1xMri5c8Z9y-15" value="Queue Group&lt;br&gt;&#39;asdf&#39;" style="rounded=0;whiteSpace=wrap;html=1;fontSize=13;" vertex="1" parent="f13K0g8XB1xMri5c8Z9y-1">
          <mxGeometry x="860" y="292.5" width="140" height="40" as="geometry" />
        </mxCell>
        <mxCell id="f13K0g8XB1xMri5c8Z9y-16" value="" style="rounded=0;whiteSpace=wrap;html=1;fontSize=13;" vertex="1" parent="f13K0g8XB1xMri5c8Z9y-1">
          <mxGeometry x="860" y="332.5" width="140" height="80" as="geometry" />
        </mxCell>
        <mxCell id="f13K0g8XB1xMri5c8Z9y-13" value="Subscription for Orders A" style="rounded=0;whiteSpace=wrap;html=1;fontSize=13;fillColor=#f5f5f5;strokeColor=#666666;fontColor=#333333;fontStyle=0" vertex="1" parent="f13K0g8XB1xMri5c8Z9y-1">
          <mxGeometry x="882.5" y="340" width="95" height="55" as="geometry" />
        </mxCell>
        <mxCell id="FhhwK9DRsQPXHS2a08th-0" value="&lt;b style=&quot;font-size: 14px;&quot;&gt;Event&lt;/b&gt;&lt;br style=&quot;font-size: 14px;&quot;&gt;ticket:created" style="rounded=0;whiteSpace=wrap;html=1;fontSize=14;fillColor=#f8cecc;strokeColor=#b85450;" vertex="1" parent="f13K0g8XB1xMri5c8Z9y-1">
          <mxGeometry x="640" y="465" width="110" height="40" as="geometry" />
        </mxCell>
        <mxCell id="FhhwK9DRsQPXHS2a08th-1" value="Queue Group&lt;br&gt;&#39;123&#39;" style="rounded=0;whiteSpace=wrap;html=1;fontSize=13;" vertex="1" parent="f13K0g8XB1xMri5c8Z9y-1">
          <mxGeometry x="860" y="430" width="140" height="40" as="geometry" />
        </mxCell>
        <mxCell id="FhhwK9DRsQPXHS2a08th-2" value="" style="rounded=0;whiteSpace=wrap;html=1;fontSize=13;" vertex="1" parent="f13K0g8XB1xMri5c8Z9y-1">
          <mxGeometry x="860" y="470" width="140" height="80" as="geometry" />
        </mxCell>
        <mxCell id="f13K0g8XB1xMri5c8Z9y-14" value="Subscription for Orders B" style="rounded=0;whiteSpace=wrap;html=1;fontSize=13;fillColor=#f5f5f5;strokeColor=#666666;fontColor=#333333;fontStyle=0" vertex="1" parent="f13K0g8XB1xMri5c8Z9y-1">
          <mxGeometry x="882.5" y="482.5" width="95" height="55" as="geometry" />
        </mxCell>
      </root>
    </mxGraphModel>
  </diagram>
  <diagram id="y_SXOssTH_gvS7M6ZISH" name="04 - id">
    <mxGraphModel dx="613" dy="302" grid="1" gridSize="10" guides="1" tooltips="1" connect="1" arrows="1" fold="1" page="1" pageScale="1" pageWidth="1920" pageHeight="1200" math="0" shadow="0">
      <root>
        <mxCell id="U5nnhxmkPqim0EIbUf6--0" />
        <mxCell id="U5nnhxmkPqim0EIbUf6--1" parent="U5nnhxmkPqim0EIbUf6--0" />
        <mxCell id="fi-J46ZypUfQe9W5iz4D-0" value="Orders Service&amp;nbsp;" style="rounded=0;whiteSpace=wrap;html=1;fontSize=19;fillColor=#f5f5f5;strokeColor=#666666;fontColor=#333333;fontStyle=1" vertex="1" parent="U5nnhxmkPqim0EIbUf6--1">
          <mxGeometry x="840" y="190" width="180" height="25" as="geometry" />
        </mxCell>
        <mxCell id="fi-J46ZypUfQe9W5iz4D-13" style="edgeStyle=orthogonalEdgeStyle;rounded=0;orthogonalLoop=1;jettySize=auto;html=1;exitX=0.5;exitY=1;exitDx=0;exitDy=0;fontSize=13;" edge="1" parent="U5nnhxmkPqim0EIbUf6--1" source="fi-J46ZypUfQe9W5iz4D-1" target="fi-J46ZypUfQe9W5iz4D-12">
          <mxGeometry relative="1" as="geometry" />
        </mxCell>
        <mxCell id="fi-J46ZypUfQe9W5iz4D-1" value="" style="rounded=0;whiteSpace=wrap;html=1;fontSize=22;fillColor=#f5f5f5;strokeColor=#666666;fontColor=#333333;fontStyle=1" vertex="1" parent="U5nnhxmkPqim0EIbUf6--1">
          <mxGeometry x="840" y="215" width="180" height="105" as="geometry" />
        </mxCell>
        <mxCell id="fi-J46ZypUfQe9W5iz4D-2" value="Tickets Service" style="rounded=0;whiteSpace=wrap;html=1;fontSize=19;fillColor=#f5f5f5;strokeColor=#666666;fontColor=#333333;fontStyle=1" vertex="1" parent="U5nnhxmkPqim0EIbUf6--1">
          <mxGeometry x="430" y="190" width="180" height="25" as="geometry" />
        </mxCell>
        <mxCell id="fi-J46ZypUfQe9W5iz4D-3" value="" style="rounded=0;whiteSpace=wrap;html=1;fontSize=22;fillColor=#f5f5f5;strokeColor=#666666;fontColor=#333333;fontStyle=1" vertex="1" parent="U5nnhxmkPqim0EIbUf6--1">
          <mxGeometry x="430" y="215" width="180" height="105" as="geometry" />
        </mxCell>
        <mxCell id="fi-J46ZypUfQe9W5iz4D-6" value="{ _id: &#39;123&#39;, title: &#39;concert&#39; }" style="rounded=0;whiteSpace=wrap;html=1;fontSize=13;fillColor=#dae8fc;strokeColor=#6c8ebf;" vertex="1" parent="U5nnhxmkPqim0EIbUf6--1">
          <mxGeometry x="440" y="237.5" width="160" height="60" as="geometry" />
        </mxCell>
        <mxCell id="fi-J46ZypUfQe9W5iz4D-8" value="{ &lt;b&gt;id&lt;/b&gt;: &#39;123&#39;, title: &#39;concert&#39; }" style="rounded=0;whiteSpace=wrap;html=1;fontSize=13;fillColor=#f8cecc;strokeColor=#b85450;" vertex="1" parent="U5nnhxmkPqim0EIbUf6--1">
          <mxGeometry x="647" y="237.5" width="160" height="60" as="geometry" />
        </mxCell>
        <mxCell id="fi-J46ZypUfQe9W5iz4D-11" value="Orders DB" style="rounded=0;whiteSpace=wrap;html=1;fontSize=19;fillColor=#f5f5f5;strokeColor=#666666;fontColor=#333333;fontStyle=1" vertex="1" parent="U5nnhxmkPqim0EIbUf6--1">
          <mxGeometry x="840" y="425" width="180" height="25" as="geometry" />
        </mxCell>
        <mxCell id="fi-J46ZypUfQe9W5iz4D-12" value="" style="rounded=0;whiteSpace=wrap;html=1;fontSize=22;fillColor=#f5f5f5;strokeColor=#666666;fontColor=#333333;fontStyle=1" vertex="1" parent="U5nnhxmkPqim0EIbUf6--1">
          <mxGeometry x="840" y="350" width="180" height="75" as="geometry" />
        </mxCell>
        <mxCell id="TQhRVEbuMmKJUSV9UUEg-0" value="{ _&lt;b&gt;id&lt;/b&gt;: &#39;123&#39;, title: &#39;concert&#39; }" style="rounded=0;whiteSpace=wrap;html=1;fontSize=13;fillColor=#f8cecc;strokeColor=#b85450;" vertex="1" parent="U5nnhxmkPqim0EIbUf6--1">
          <mxGeometry x="850" y="237.5" width="160" height="60" as="geometry" />
        </mxCell>
      </root>
    </mxGraphModel>
  </diagram>
  <diagram id="aJ39wscjE30s1090tUL4" name="05 - insert">
    <mxGraphModel dx="858" dy="422" grid="1" gridSize="10" guides="1" tooltips="1" connect="1" arrows="1" fold="1" page="1" pageScale="1" pageWidth="1920" pageHeight="1200" math="0" shadow="0">
      <root>
        <mxCell id="eVmINbMoolYITVErckgw-0" />
        <mxCell id="eVmINbMoolYITVErckgw-1" parent="eVmINbMoolYITVErckgw-0" />
        <mxCell id="3JfAeRprQUmsi2VOOwtk-0" value="Orders Service&amp;nbsp;" style="rounded=0;whiteSpace=wrap;html=1;fontSize=19;fillColor=#f5f5f5;strokeColor=#666666;fontColor=#333333;fontStyle=1" vertex="1" parent="eVmINbMoolYITVErckgw-1">
          <mxGeometry x="840" y="190" width="260" height="25" as="geometry" />
        </mxCell>
        <mxCell id="3JfAeRprQUmsi2VOOwtk-1" value="" style="rounded=0;whiteSpace=wrap;html=1;fontSize=22;fillColor=#f5f5f5;strokeColor=#666666;fontColor=#333333;fontStyle=1" vertex="1" parent="eVmINbMoolYITVErckgw-1">
          <mxGeometry x="840" y="215" width="260" height="325" as="geometry" />
        </mxCell>
        <mxCell id="3JfAeRprQUmsi2VOOwtk-7" style="edgeStyle=orthogonalEdgeStyle;rounded=0;orthogonalLoop=1;jettySize=auto;html=1;exitX=1;exitY=0.5;exitDx=0;exitDy=0;fontSize=15;" edge="1" parent="eVmINbMoolYITVErckgw-1" source="3JfAeRprQUmsi2VOOwtk-3" target="3JfAeRprQUmsi2VOOwtk-6">
          <mxGeometry relative="1" as="geometry" />
        </mxCell>
        <mxCell id="3JfAeRprQUmsi2VOOwtk-3" value="&lt;b style=&quot;font-size: 15px;&quot;&gt;Event&lt;br style=&quot;font-size: 15px;&quot;&gt;ticket:created&lt;br style=&quot;font-size: 15px;&quot;&gt;&lt;/b&gt;" style="rounded=0;whiteSpace=wrap;html=1;fontSize=15;fillColor=#f8cecc;strokeColor=#b85450;" vertex="1" parent="eVmINbMoolYITVErckgw-1">
          <mxGeometry x="680" y="221.25" width="120" height="60" as="geometry" />
        </mxCell>
        <mxCell id="3JfAeRprQUmsi2VOOwtk-11" style="edgeStyle=orthogonalEdgeStyle;rounded=0;orthogonalLoop=1;jettySize=auto;html=1;exitX=0.5;exitY=1;exitDx=0;exitDy=0;fontSize=15;" edge="1" parent="eVmINbMoolYITVErckgw-1" source="3JfAeRprQUmsi2VOOwtk-6" target="3JfAeRprQUmsi2VOOwtk-8">
          <mxGeometry relative="1" as="geometry" />
        </mxCell>
        <mxCell id="3JfAeRprQUmsi2VOOwtk-6" value="Extract info from the event" style="rounded=0;whiteSpace=wrap;html=1;fontSize=15;" vertex="1" parent="eVmINbMoolYITVErckgw-1">
          <mxGeometry x="855" y="230" width="230" height="42.5" as="geometry" />
        </mxCell>
        <mxCell id="3JfAeRprQUmsi2VOOwtk-15" style="edgeStyle=orthogonalEdgeStyle;rounded=0;orthogonalLoop=1;jettySize=auto;html=1;exitX=0.5;exitY=1;exitDx=0;exitDy=0;entryX=0.5;entryY=0;entryDx=0;entryDy=0;fontSize=15;" edge="1" parent="eVmINbMoolYITVErckgw-1" source="3JfAeRprQUmsi2VOOwtk-8" target="3JfAeRprQUmsi2VOOwtk-14">
          <mxGeometry relative="1" as="geometry" />
        </mxCell>
        <mxCell id="3JfAeRprQUmsi2VOOwtk-8" value="Build Ticket doc" style="rounded=0;whiteSpace=wrap;html=1;fontSize=15;" vertex="1" parent="eVmINbMoolYITVErckgw-1">
          <mxGeometry x="855" y="293" width="230" height="42.5" as="geometry" />
        </mxCell>
        <mxCell id="3JfAeRprQUmsi2VOOwtk-13" style="edgeStyle=orthogonalEdgeStyle;rounded=0;orthogonalLoop=1;jettySize=auto;html=1;exitX=0.5;exitY=1;exitDx=0;exitDy=0;entryX=0.5;entryY=0;entryDx=0;entryDy=0;fontSize=15;" edge="1" parent="eVmINbMoolYITVErckgw-1" source="3JfAeRprQUmsi2VOOwtk-9" target="3JfAeRprQUmsi2VOOwtk-10">
          <mxGeometry relative="1" as="geometry" />
        </mxCell>
        <mxCell id="3JfAeRprQUmsi2VOOwtk-9" value="Write ticket to DB" style="rounded=0;whiteSpace=wrap;html=1;fontSize=15;" vertex="1" parent="eVmINbMoolYITVErckgw-1">
          <mxGeometry x="855" y="418" width="230" height="42.5" as="geometry" />
        </mxCell>
        <mxCell id="3JfAeRprQUmsi2VOOwtk-10" value="Ack the message" style="rounded=0;whiteSpace=wrap;html=1;fontSize=15;" vertex="1" parent="eVmINbMoolYITVErckgw-1">
          <mxGeometry x="855" y="480" width="230" height="42.5" as="geometry" />
        </mxCell>
        <mxCell id="3JfAeRprQUmsi2VOOwtk-16" style="edgeStyle=orthogonalEdgeStyle;rounded=0;orthogonalLoop=1;jettySize=auto;html=1;exitX=0.5;exitY=1;exitDx=0;exitDy=0;entryX=0.5;entryY=0;entryDx=0;entryDy=0;fontSize=15;" edge="1" parent="eVmINbMoolYITVErckgw-1" source="3JfAeRprQUmsi2VOOwtk-14" target="3JfAeRprQUmsi2VOOwtk-9">
          <mxGeometry relative="1" as="geometry" />
        </mxCell>
        <mxCell id="3JfAeRprQUmsi2VOOwtk-14" value="Mongoose validates the document" style="rounded=0;whiteSpace=wrap;html=1;fontSize=15;" vertex="1" parent="eVmINbMoolYITVErckgw-1">
          <mxGeometry x="855" y="355" width="230" height="42.5" as="geometry" />
        </mxCell>
        <mxCell id="3JfAeRprQUmsi2VOOwtk-17" value="&lt;b style=&quot;font-size: 23px&quot;&gt;We really care about these steps being executed successfully&lt;br style=&quot;font-size: 23px&quot;&gt;&lt;/b&gt;" style="rounded=0;whiteSpace=wrap;html=1;fontSize=23;fillColor=#e1d5e7;strokeColor=#9673a6;" vertex="1" parent="eVmINbMoolYITVErckgw-1">
          <mxGeometry x="1170" y="326.25" width="270" height="97.5" as="geometry" />
        </mxCell>
        <mxCell id="3JfAeRprQUmsi2VOOwtk-18" value="" style="shape=curlyBracket;whiteSpace=wrap;html=1;rounded=1;fontSize=23;rotation=-180;" vertex="1" parent="eVmINbMoolYITVErckgw-1">
          <mxGeometry x="1090" y="230" width="80" height="290" as="geometry" />
        </mxCell>
      </root>
    </mxGraphModel>
  </diagram>
</mxfile>
